<svg xmlns="http://www.w3.org/2000/svg" xmlns:xlink="http://www.w3.org/1999/xlink" width="100" height="100" viewBox="0 0 100 100">
  <defs>
    <clipPath id="clip-tiefl">
      <rect width="100" height="100"/>
    </clipPath>
  </defs>
  <g id="tiefl" clip-path="url(#clip-tiefl)">
    <g id="noun-gargoyle-4167370">
      <g id="Groupe_3" data-name="Groupe 3">
        <path id="Tracé_7" data-name="Tracé 7" d="M39.823,21.4A6.412,6.412,0,1,0,27,21.4v3.206H39.823Zm-9.617,0a3.206,3.206,0,1,1,6.412,0Z" transform="translate(16.278 9.036)" fill="#fff"/>
        <path id="Tracé_8" data-name="Tracé 8" d="M47.412,14.988A6.418,6.418,0,0,0,41,21.4v3.206H53.823V21.4A6.418,6.418,0,0,0,47.412,14.988ZM44.206,21.4a3.206,3.206,0,1,1,6.412,0Z" transform="translate(24.719 9.036)" fill="#fff"/>
        <path id="Tracé_9" data-name="Tracé 9" d="M29,26.591a14.426,14.426,0,1,0,28.852,0v-1.6H29Zm6.412,1.6V31.4h3.206V28.194h9.617V31.4h3.206V28.194h3.092a11.222,11.222,0,0,1-22.213,0h3.092Z" transform="translate(17.484 15.065)" fill="#fff"/>
        <path id="Tracé_10" data-name="Tracé 10" d="M41.66,24.157,39.7,23.175l1.162-3.488-3.039-1.015L35.777,24.8l4.45,2.225Z" transform="translate(21.57 11.257)" fill="#fff"/>
        <path id="Tracé_11" data-name="Tracé 11" d="M97.777,20.818a20.682,20.682,0,0,0-9.866,2.5,10.181,10.181,0,0,0-1.975-4.235l-.008-.01a13.563,13.563,0,0,0-.05-14.981L83.152,0,81.916,2.47a22.984,22.984,0,0,1-5.437,7.016,28.154,28.154,0,0,0-31.138,0A22.984,22.984,0,0,1,39.9,2.47L38.668,0,35.942,4.089a13.563,13.563,0,0,0-.05,14.981l-.01.011a10.166,10.166,0,0,0-1.975,4.233,20.682,20.682,0,0,0-9.866-2.5H21.817L28.2,39.971a4.8,4.8,0,0,0,4.562,3.288h7.248a10.375,10.375,0,0,1,.061,1.119v2.089a15.92,15.92,0,0,0,3.1,9.43,38.991,38.991,0,0,1-19.4-15.128l-.761-1.141-1.244.574A37.583,37.583,0,0,0,0,74.224V88.805l3.951-3.951A10.6,10.6,0,0,1,11.5,81.73,9.406,9.406,0,0,1,18.1,84.466l1.306,1.306,2.762-3.683a9.134,9.134,0,0,1,8.907-3.377,31,31,0,0,0-.622,6.146A12.9,12.9,0,0,0,49.993,95.921l1.343-.806c-.01.12-.043.237-.043.357a5.5,5.5,0,0,0,5.493,5.493H86.556v-1.6a9.142,9.142,0,0,0-7.662-9.047l-2.271-.378L70.47,66.557A9.729,9.729,0,0,0,68.077,62.3,16.041,16.041,0,0,0,81.748,46.465V44.376c0-.375.021-.749.058-1.117h7.248a4.8,4.8,0,0,0,4.562-3.288L100,20.818Zm-3.31,6.466a25.54,25.54,0,0,0-6.78,1.183A9.993,9.993,0,0,0,88.022,27a17.479,17.479,0,0,1,7.484-2.834ZM83.455,6.251A10.379,10.379,0,0,1,80.8,19.926l-.508.38-5.58-5.58.107-.064A26.2,26.2,0,0,0,83.455,6.251Zm-45.09,0A26.164,26.164,0,0,0,47,14.66l.107.064-5.58,5.58-.508-.38A10.375,10.375,0,0,1,38.365,6.251ZM33.8,27a9.992,9.992,0,0,0,.335,1.465,25.529,25.529,0,0,0-6.78-1.183l-1.039-3.116A17.479,17.479,0,0,1,33.8,27ZM32.765,40.053a1.6,1.6,0,0,1-1.521-1.1l-.7-2.109h3.121V33.642H29.472l-1.029-3.087a22.332,22.332,0,0,1,7.441,2.02l3.22,7.245c.034.077.058.157.09.234ZM3.206,81.267V74.222A34.376,34.376,0,0,1,21.9,43.7,42.178,42.178,0,0,0,43.855,59.533a30.973,30.973,0,0,0-3.021,2.342,45.917,45.917,0,0,1-18.879-12.95l-.941-1.079-1.178.816A31.174,31.174,0,0,0,6.415,73.716v5.806A13.707,13.707,0,0,0,3.206,81.267Zm26.1-5.95a12.167,12.167,0,0,0-8.465,3.473v-16.3H17.632V80.163a12.584,12.584,0,0,0-6.136-1.64,14,14,0,0,0-1.875.149V73.741a27.952,27.952,0,0,1,10.9-21.615,49.2,49.2,0,0,0,17.8,12.227A30.418,30.418,0,0,0,31.877,75.6,12.137,12.137,0,0,0,29.3,75.317ZM54.5,95.472a2.317,2.317,0,0,1,.24-1.024l1.491-2.977-1.244-3.732a9.591,9.591,0,0,1-.487-3.082,9.27,9.27,0,0,1,2.735-6.6l-2.266-2.266a12.509,12.509,0,0,0-3.674,8.955,12.686,12.686,0,0,0,.651,4.007l.627,1.882L48.342,93.17a9.7,9.7,0,0,1-14.681-8.314A27.322,27.322,0,0,1,46.378,61.692l1.935-1.233a15.918,15.918,0,0,0,5.666,1.875,9.709,9.709,0,0,0-2.686,6.7v.8a16.685,16.685,0,0,0-11.22,15.736v2.568h3.206V85.574A13.477,13.477,0,0,1,56.739,72.113a7.385,7.385,0,0,1,7.377,7.377,7.108,7.108,0,0,1-.075,1.043L62.314,92.622l3.215.643a6.218,6.218,0,0,1,4.762,4.495H56.784A2.29,2.29,0,0,1,54.5,95.472Zm19.551-2.715,4.317.72a5.944,5.944,0,0,1,4.769,4.281H73.591a9.453,9.453,0,0,0-7.433-7.638l-.24-.048,1.3-9.084a10.363,10.363,0,0,0,.107-1.5A10.6,10.6,0,0,0,56.739,68.905a16.661,16.661,0,0,0-2.241.168v-.037A6.543,6.543,0,0,1,67.37,67.373Zm4.493-48.379v2.089A12.838,12.838,0,0,1,65.719,59.29H56.1A12.838,12.838,0,0,1,43.278,46.466V44.378a14.37,14.37,0,0,0-1.242-5.859L37.465,28.237a6.888,6.888,0,0,1-.6-2.819,6.96,6.96,0,0,1,1.175-3.82,13.287,13.287,0,0,0,1.052.89l2.731,2.049L52.274,14.086l-3.626-2.174c-.2-.117-.381-.25-.574-.373A24.82,24.82,0,0,1,56.1,8.475V12.8a4.815,4.815,0,0,0,4.809,4.809h2.542l4.339,4.339,2.266-2.266L66.382,16.01l2.073-2.073-2.266-2.266-2.736,2.736H60.91a1.6,1.6,0,0,1-1.6-1.6V8.058C59.839,8.024,60.373,8,60.91,8a24.9,24.9,0,0,1,12.838,3.544c-.192.123-.378.255-.574.373l-3.627,2.177L80,24.539l2.731-2.049a13.338,13.338,0,0,0,1.051-.89,6.849,6.849,0,0,1,.577,6.634L79.784,38.519A14.364,14.364,0,0,0,78.542,44.378Zm10.513-4.325H82.626c.032-.077.056-.157.09-.234l3.222-7.247a22.37,22.37,0,0,1,7.441-2.02L92.349,33.64h-4.19v3.206H91.28l-.7,2.109A1.6,1.6,0,0,1,89.055,40.053Z" fill="#fff"/>
      </g>
    </g>
  </g>
</svg>
