<svg xmlns="http://www.w3.org/2000/svg" xmlns:xlink="http://www.w3.org/1999/xlink" width="100" height="100" viewBox="0 0 100 100">
  <defs>
    <clipPath id="clip-elf">
      <rect width="100" height="100"/>
    </clipPath>
  </defs>
  <g id="elf" clip-path="url(#clip-elf)">
    <g id="noun-jester-4277478_1_" data-name="noun-jester-4277478(1)">
      <g id="Groupe_4" data-name="Groupe 4">
        <path id="Tracé_12" data-name="Tracé 12" d="M20.452,28A6.458,6.458,0,0,0,14,34.452v3.226H26.9V34.452A6.458,6.458,0,0,0,20.452,28Zm-3.226,6.452a3.226,3.226,0,1,1,6.452,0Z" transform="translate(8.581 17.161)" fill="#fff"/>
        <path id="Tracé_13" data-name="Tracé 13" d="M34.452,28A6.458,6.458,0,0,0,28,34.452v3.226H40.9V34.452A6.458,6.458,0,0,0,34.452,28Zm-3.226,6.452a3.226,3.226,0,1,1,6.452,0Z" transform="translate(17.161 17.161)" fill="#fff"/>
        <path id="Tracé_14" data-name="Tracé 14" d="M34.9,40H31.677a3.229,3.229,0,0,1-3.226,3.226H22v3.226h6.452A6.458,6.458,0,0,0,34.9,40Z" transform="translate(13.484 24.516)" fill="#fff"/>
        <path id="Tracé_15" data-name="Tracé 15" d="M100,79.032a11.29,11.29,0,1,0-21.406,4.982,4.22,4.22,0,0,0-.834.3L72.2,87.1H57.119l-3.226-3.226h4.171a3.229,3.229,0,0,0,3.226-3.226V77.419a3.229,3.229,0,0,0-3.226-3.226H55.877A14.488,14.488,0,0,0,61.29,62.9v-1.91a4.832,4.832,0,0,0,3.226-4.542V54.223l9.677-4.839v8.977a4.839,4.839,0,1,0,3.226,0V46.774a4.845,4.845,0,0,0-4.839-4.839H64.219a4.844,4.844,0,0,0-1.055-1.727,46,46,0,0,1,6.919-18.065,7.912,7.912,0,0,0,2.5.437,8.065,8.065,0,1,0-7.926-9.439,49.585,49.585,0,0,0-17.444,4.95c-.7-1.2-1.355-2.427-2-3.655a8.065,8.065,0,1,0-9.771,0c-.65,1.229-1.3,2.455-2,3.656a49.585,49.585,0,0,0-17.444-4.95,8.055,8.055,0,1,0-7.926,9.437,7.957,7.957,0,0,0,2.5-.435A45.97,45.97,0,0,1,17.481,40.21a4.821,4.821,0,0,0-1.055,1.727H8.065a4.845,4.845,0,0,0-4.839,4.839V58.363a4.836,4.836,0,1,0,3.226,0V49.384l9.677,4.839v2.229a4.832,4.832,0,0,0,3.226,4.542V62.9a14.488,14.488,0,0,0,5.413,11.29H22.581a3.229,3.229,0,0,0-3.226,3.226v3.226a3.229,3.229,0,0,0,3.226,3.226h3.226V100H83.871a9.687,9.687,0,0,0,9.677-9.677,3.176,3.176,0,0,0-.181-1.018A11.3,11.3,0,0,0,100,79.032ZM50,77.419l-1.1,1.461-1.461-1.461ZM53.226,78.5l1.613,2.15H51.613Zm4.839,1.074-1.613-2.15h1.613ZM61.29,56.452a1.616,1.616,0,0,1-1.613,1.613H44.411l-4.089-6.134-4.089,6.134H20.968a1.616,1.616,0,0,1-1.613-1.613v-12.9a1.616,1.616,0,0,1,1.613-1.613h38.71a1.616,1.616,0,0,1,1.613,1.613ZM57.611,38.71H54.839V35.484H56.8Zm-6,0H48.387V35.484h3.226Zm-6.452,0H41.935V35.484h3.226Zm-6.452,0H35.484V35.484H38.71Zm-6.452,0H29.032V35.484h3.226ZM23.84,35.484h1.966V38.71H23.034ZM75.806,64.516A1.613,1.613,0,1,1,77.419,62.9,1.616,1.616,0,0,1,75.806,64.516Zm-1.9-18.6-9.4,4.7V45.161h8.065A1.584,1.584,0,0,1,73.911,45.918ZM60.49,36.924,59.935,34.7a3.214,3.214,0,0,0-2.682-2.4c-.4-.469-.771-.96-1.16-1.437A23.38,23.38,0,0,1,66.619,19.9a8.322,8.322,0,0,0,.66.647A49.227,49.227,0,0,0,60.49,36.924ZM72.581,9.677a4.839,4.839,0,1,1-4.839,4.839A4.845,4.845,0,0,1,72.581,9.677Zm-7.829,6.694a7.781,7.781,0,0,0,.231.744A26.584,26.584,0,0,0,53.858,28.076c-1.763-2.329-3.389-4.756-4.942-7.231A46.392,46.392,0,0,1,64.752,16.371ZM53.079,32.258H41.935V15.966c.129-.026.245-.081.371-.113A103.471,103.471,0,0,0,53.079,32.258ZM40.323,3.226a4.839,4.839,0,1,1-4.839,4.839A4.845,4.845,0,0,1,40.323,3.226ZM38.71,15.966V32.258H27.566A103.326,103.326,0,0,0,38.337,15.852C38.465,15.885,38.581,15.94,38.71,15.966ZM26.785,28.076A26.584,26.584,0,0,0,15.661,17.115a7.782,7.782,0,0,0,.231-.744,46.369,46.369,0,0,1,15.835,4.473C30.176,23.319,28.548,25.747,26.785,28.076ZM3.226,14.516a4.839,4.839,0,1,1,4.839,4.839A4.845,4.845,0,0,1,3.226,14.516Zm10.8,5.382A23.38,23.38,0,0,1,24.553,30.86c-.389.477-.761.968-1.16,1.437a3.214,3.214,0,0,0-2.682,2.4l-.555,2.223a49.272,49.272,0,0,0-6.787-16.379A9.219,9.219,0,0,0,14.027,19.9ZM4.839,64.516A1.613,1.613,0,1,1,6.452,62.9,1.616,1.616,0,0,1,4.839,64.516Zm1.9-18.6a1.584,1.584,0,0,1,1.331-.756h8.065v5.455ZM22.581,62.9V61.29H37.96l2.363-3.544,2.363,3.544H58.065V62.9a11.3,11.3,0,0,1-11.29,11.29h-12.9A11.3,11.3,0,0,1,22.581,62.9Zm10.1,17.232-2.037-2.716h3.477A8.392,8.392,0,0,0,32.682,80.135Zm-3.65.51H25.806l1.613-2.15Zm-4.839-3.226-1.613,2.15v-2.15Zm4.839,19.355v-12.9h3.345a8.37,8.37,0,0,0,2.358,4.758l8.145,8.145Zm16.994-1.416-9.01-9.01a5.23,5.23,0,1,1,7.4-7.4l9.758,9.758L52.085,90.8l2.281,2.281,2.753-2.753H70.968v6.452H49.447A4.871,4.871,0,0,1,46.026,95.358Zm44.3-5.035a6.458,6.458,0,0,1-6.452,6.452H74.194V89.706L79.2,87.2a1.026,1.026,0,0,1,1.444.892v2.229ZM88.71,87.1a8.065,8.065,0,1,1,8.065-8.065A8.074,8.074,0,0,1,88.71,87.1Z" fill="#fff"/>
      </g>
    </g>
  </g>
</svg>
